<?xml version="1.0" encoding="UTF-8" standalone="no"?>
<svg
   viewBox="0 0 81.670587 18.869451"
   version="1.1"
   id="svg191"
   sodipodi:docname="logo.svg"
   width="81.670586"
   height="18.869452"
   inkscape:version="1.2.2 (b0a8486541, 2022-12-01)"
   xmlns:inkscape="http://www.inkscape.org/namespaces/inkscape"
   xmlns:sodipodi="http://sodipodi.sourceforge.net/DTD/sodipodi-0.dtd"
   xmlns="http://www.w3.org/2000/svg"
   xmlns:svg="http://www.w3.org/2000/svg">
  <defs
     id="defs195" />
  <sodipodi:namedview
     id="namedview193"
     pagecolor="#ffffff"
     bordercolor="#000000"
     borderopacity="0.25"
     inkscape:showpageshadow="2"
     inkscape:pageopacity="0.0"
     inkscape:pagecheckerboard="0"
     inkscape:deskcolor="#d1d1d1"
     showgrid="false"
     inkscape:zoom="27.667902"
     inkscape:cx="19.1377"
     inkscape:cy="11.059747"
     inkscape:window-width="1920"
     inkscape:window-height="1043"
     inkscape:window-x="0"
     inkscape:window-y="481"
     inkscape:window-maximized="1"
     inkscape:current-layer="svg191" />
  <rect
     style="fill:#cccccc;stroke:none;stroke-width:1.13386;stroke-linecap:square;paint-order:stroke markers fill"
     id="rect939"
     width="10.743347"
     height="0.58903021"
     x="51.10704"
     y="-5.7458491"
     inkscape:transform-center-x="0.022714905"
     inkscape:transform-center-y="0.10315775"
     transform="matrix(0.99712763,-0.07573955,-0.07573955,-0.99712763,0,0)" />
  <rect
     style="fill:#cccccc;stroke:none;stroke-width:1.13386;stroke-linecap:square;paint-order:stroke markers fill"
     id="rect937"
     width="12.18683"
     height="0.58828384"
     x="39.816532"
     y="47.342815"
     inkscape:transform-center-x="-13.252482"
     inkscape:transform-center-y="-2.9147767"
     transform="matrix(0.6243933,0.78111011,0.78111011,-0.6243933,0,0)" />
  <circle
     style="fill:#71c837;fill-opacity:1;stroke:none;stroke-width:1.13386;stroke-linecap:square;paint-order:stroke markers fill"
     id="circle945"
     cx="60.174667"
     cy="13.451544"
     r="0.82603395"
     transform="matrix(0.97241059,0.23327592,0.23327592,-0.97241059,0,0)" />
  <circle
     style="fill:#71c837;fill-opacity:1;stroke:none;stroke-width:1.13386;stroke-linecap:square;paint-order:stroke markers fill"
     id="circle1698"
     cx="50.49979"
     cy="10.500797"
     r="1.3984525"
     transform="matrix(0.97241058,0.23327593,0.23327593,-0.97241058,0,0)" />
  <circle
     style="fill:#71c837;fill-opacity:1;stroke:none;stroke-width:1.13386;stroke-linecap:square;paint-order:stroke markers fill"
     id="circle1719"
     cx="70.905075"
     cy="5.9426851"
     r="1.3622392"
     transform="matrix(0.97241058,0.23327593,0.23327593,-0.97241058,0,0)" />
  <path
     d="m 4.9911155,14.353621 q -1.4706849,0 -2.5844074,-0.642532 Q 1.307264,13.054278 0.69328871,11.926277 0.07931347,10.783997 0.07931347,9.356148 q 0,-1.0851655 0.37124085,-1.9989892 Q 0.82179516,6.4433353 1.4786059,5.7722461 2.1496952,5.1011569 3.0349618,4.729916 3.934507,4.3586752 4.9911155,4.3586752 q 1.6563053,0 2.7129138,0.6853677 1.0566086,0.6710892 1.7276979,1.8133687 L 8.0324347,7.2714879 Q 7.375624,6.3719428 6.6188638,6.057816 5.8763821,5.7294106 4.9911155,5.7294106 q -0.9852161,0 -1.7705333,0.4711903 Q 2.4495435,6.6717912 1.9926317,7.4856653 1.5357199,8.2995395 1.5357199,9.356148 q 0,1.04233 0.4569118,1.870483 0.4569118,0.813874 1.2279505,1.285064 0.7853172,0.47119 1.7705333,0.47119 0.8852666,0 1.6277483,-0.314127 0.7567602,-0.328405 1.4135709,-1.227949 l 1.3992925,0.414076 q -0.6710893,1.142279 -1.7276979,1.827646 -1.0566085,0.67109 -2.7129138,0.67109 z"
     style="font-size:14.2351px;line-height:1.3;font-family:Gabarito;-inkscape-font-specification:Gabarito;fill:#1a1a1a;stroke:none;stroke-width:1.13386;stroke-linecap:square;paint-order:stroke markers fill"
     id="path1912" />
  <path
     d="m 13.543917,14.353621 q -1.013773,0 -1.784812,-0.442633 -0.771038,-0.456912 -1.199393,-1.270786 -0.428354,-0.813875 -0.428354,-1.89904 0,-1.0994441 0.428354,-1.9133182 0.428355,-0.8138742 1.199393,-1.270786 0.771039,-0.4569118 1.784812,-0.4569118 1.028052,0 1.79909,0.4569118 0.771039,0.4569118 1.199394,1.270786 0.428354,0.8138741 0.428354,1.9133182 0,0.09994 -0.01427,0.214177 0,0.09995 -0.01427,0.185621 H 11.487814 V 9.9130093 h 4.426333 l -0.399798,0.8281527 q 0,-1.0851656 -0.485468,-1.7848118 -0.48547,-0.6996462 -1.484964,-0.6996462 -0.885267,0 -1.41357,0.5711398 -0.528305,0.5568612 -0.528305,1.4706852 v 0.742481 q 0,0.95666 0.514025,1.5278 0.514027,0.55686 1.42785,0.55686 0.842431,0 1.299343,-0.356962 0.456912,-0.356963 0.799596,-0.885266 l 1.070887,0.671088 q -0.485469,0.899546 -1.256507,1.356458 -0.756761,0.442633 -1.913319,0.442633 z"
     style="font-size:14.2351px;line-height:1.3;font-family:Gabarito;-inkscape-font-specification:Gabarito;fill:#1a1a1a;stroke:none;stroke-width:1.13386;stroke-linecap:square;paint-order:stroke markers fill"
     id="path1914" />
  <path
     d="m 22.296623,7.100146 q 0.742482,0 1.170837,0.2570128 0.428355,0.2427345 0.628254,0.6710893 0.199899,0.4140763 0.257012,0.9423806 0.05711,0.5283043 0.05711,1.0851653 v 4.155042 H 22.98199 V 9.7559459 q 0,-0.7424817 -0.342684,-0.9994946 -0.328405,-0.2570129 -0.785317,-0.2570129 -0.456911,0 -0.928102,0.1856204 -0.47119,0.1856204 -0.842431,0.4997473 -0.371241,0.3141269 -0.571139,0.6996462 V 9.0848567 h 0.228455 v 5.1259793 h -1.42785 V 7.2429309 h 1.085166 l 0.299849,1.2279505 -0.356963,0.042835 Q 19.740773,8.0568051 20.211963,7.7426782 20.683154,7.4285513 21.211457,7.2714879 21.739762,7.100146 22.296623,7.100146 Z"
     style="font-size:14.2351px;line-height:1.3;font-family:Gabarito;-inkscape-font-specification:Gabarito;fill:#1a1a1a;stroke:none;stroke-width:1.13386;stroke-linecap:square;paint-order:stroke markers fill"
     id="path1916" />
  <path
     d="m 28.679131,14.339343 q -0.913825,0 -1.456406,-0.528305 Q 26.69442,13.268455 26.69442,12.140455 V 7.3286019 7.2429309 l 0.271291,-1.5706343 h 1.156558 v 6.4967154 q 0,0.399798 0.199899,0.599696 0.214178,0.199899 0.528304,0.199899 0.242735,0 0.428355,-0.02856 0.18562,-0.02856 0.328405,-0.0714 v 1.3279 q -0.18562,0.05711 -0.414076,0.09995 -0.214177,0.04283 -0.514025,0.04283 z M 25.623532,8.5565524 V 7.2429309 h 3.9837 v 1.3136215 z"
     style="font-size:14.2351px;line-height:1.3;font-family:Gabarito;-inkscape-font-specification:Gabarito;fill:#1a1a1a;stroke:none;stroke-width:1.13386;stroke-linecap:square;paint-order:stroke markers fill"
     id="path1918" />
  <path
     d="m 34.076388,14.353621 q -1.013773,0 -1.784812,-0.442633 -0.771039,-0.456912 -1.199394,-1.270786 -0.428355,-0.813875 -0.428355,-1.89904 0,-1.0994441 0.428355,-1.9133182 0.428355,-0.8138742 1.199394,-1.270786 0.771039,-0.4569118 1.784812,-0.4569118 1.028051,0 1.79909,0.4569118 0.771039,0.4569118 1.199394,1.270786 0.428354,0.8138741 0.428354,1.9133182 0,0.09994 -0.01427,0.214177 0,0.09995 -0.01427,0.185621 H 32.020285 V 9.9130093 h 4.426333 L 36.04682,10.741162 q 0,-1.0851656 -0.485468,-1.7848118 -0.48547,-0.6996462 -1.484964,-0.6996462 -0.885267,0 -1.413571,0.5711398 -0.528304,0.5568612 -0.528304,1.4706852 v 0.742481 q 0,0.95666 0.514025,1.5278 0.514026,0.55686 1.42785,0.55686 0.842431,0 1.299343,-0.356962 0.456912,-0.356963 0.799596,-0.885266 l 1.070886,0.671088 q -0.485468,0.899546 -1.256506,1.356458 -0.756761,0.442633 -1.913319,0.442633 z"
     style="font-size:14.2351px;line-height:1.3;font-family:Gabarito;-inkscape-font-specification:Gabarito;fill:#1a1a1a;stroke:none;stroke-width:1.13386;stroke-linecap:square;paint-order:stroke markers fill"
     id="path1920" />
  <path
     d="m 39.93056,7.2429309 0.342684,1.8847612 v 5.0831439 h -1.42785 V 7.2429309 Z M 40.059067,9.7131104 39.716382,9.556047 V 8.5137169 l 0.128507,-0.1570635 q 0.142785,-0.2570128 0.442633,-0.5425827 0.314127,-0.2998484 0.728203,-0.4997473 0.414077,-0.2141774 0.842432,-0.2141774 0.214177,0 0.399798,0.028557 0.199898,0.028557 0.299848,0.09995 V 8.513717 H 42.11517 q -0.970938,0 -1.413571,0.2998484 -0.442634,0.2855699 -0.642532,0.899545 z"
     style="font-size:14.2351px;line-height:1.3;font-family:Gabarito;-inkscape-font-specification:Gabarito;fill:#1a1a1a;stroke:none;stroke-width:1.13386;stroke-linecap:square;paint-order:stroke markers fill"
     id="path1922" />
  <path
     d="m 48.64169,14.410735 q -1.484963,0 -2.612965,-0.628254 -1.113722,-0.642532 -1.741976,-1.756254 -0.613975,-1.113723 -0.613975,-2.5415725 0,-1.1708365 0.356962,-2.1132172 0.356963,-0.956659 1.013773,-1.6420267 0.656811,-0.6853677 1.570635,-1.0566086 0.913824,-0.3712408 2.027546,-0.3712408 1.670584,0 2.798585,0.7424817 1.128001,0.7282032 1.656306,2.1560525 L 50.812022,8.228147 Q 50.483616,7.5427793 49.955312,7.1858169 49.427007,6.8145762 48.64169,6.8145762 q -0.685367,0 -1.213672,0.3141267 -0.528304,0.2998484 -0.828153,0.8995452 -0.28557,0.5854182 -0.28557,1.4564064 0,0.7710385 0.28557,1.3421785 0.299849,0.571139 0.813875,0.885267 0.528304,0.299848 1.213671,0.299848 0.628255,0 1.070888,-0.185621 0.442633,-0.199898 0.713925,-0.57114 0.271291,-0.385518 0.356961,-0.956658 l 0.899546,0.65681 H 48.413234 V 8.6993373 h 4.726182 q 0.07139,0.2712914 0.09995,0.5854183 0.02856,0.3141269 0.02856,0.6425322 0,1.0708872 -0.385519,1.9133182 -0.38552,0.828152 -1.04233,1.399292 -0.656811,0.57114 -1.484964,0.870988 -0.828152,0.299849 -1.713419,0.299849 z"
     style="font-weight:900;font-size:14.2351px;line-height:1.3;font-family:Gabarito;-inkscape-font-specification:'Gabarito Heavy';fill:#1a1a1a;stroke:none;stroke-width:1.13386;stroke-linecap:square;paint-order:stroke markers fill"
     id="path1924" />
  <path
     d="m 56.05223,7.2143739 0.685368,1.9704322 V 14.210836 H 54.153191 V 7.2143739 Z m 0.04284,3.5553451 -0.371241,-0.157063 V 8.5565524 L 55.86661,8.3852104 Q 56.05223,8.142476 56.380636,7.8283492 56.72332,7.4999438 57.165953,7.2572094 57.608586,7.014475 58.094056,7.014475 q 0.242733,0 0.414076,0.042835 0.18562,0.028557 0.299848,0.09995 v 2.3559516 h -0.485469 q -0.870988,0 -1.456406,0.2998484 -0.57114,0.299848 -0.771039,0.956659 z"
     style="font-weight:900;font-size:14.2351px;line-height:1.3;font-family:Gabarito;-inkscape-font-specification:'Gabarito Heavy';fill:#1a1a1a;stroke:none;stroke-width:1.13386;stroke-linecap:square;paint-order:stroke markers fill"
     id="path1926" />
  <path
     d="m 61.449504,14.396456 q -0.713924,0 -1.285064,-0.299848 -0.57114,-0.299848 -0.899545,-0.828153 -0.328405,-0.528304 -0.328405,-1.199393 0,-0.771038 0.356962,-1.285065 0.371241,-0.514025 0.942381,-0.771038 0.585418,-0.2712916 1.242229,-0.2712916 1.056608,0 1.727698,0.4854686 0.685367,0.485469 0.870988,1.456406 l -0.985216,-0.28557 V 9.8844523 q 0,-0.3426838 -0.257013,-0.5568612 -0.242735,-0.2284559 -0.713925,-0.2284559 -0.38552,0 -0.899545,0.09995 -0.499748,0.09995 -1.056609,0.3855194 L 59.421958,7.7855137 Q 60.078769,7.4571083 60.864086,7.2429309 61.663682,7.014475 62.53467,7.014475 q 1.028052,0 1.727698,0.3712408 0.713925,0.3569624 1.070888,1.0423301 0.356961,0.6710893 0.356961,1.6134701 v 4.16932 h -2.227445 l -0.456912,-1.413571 1.070888,-0.342683 q -0.214178,0.870988 -0.842431,1.413571 -0.628255,0.528303 -1.784813,0.528303 z m 0.942381,-1.670583 q 0.328405,0 0.528305,-0.185621 0.199898,-0.199899 0.199898,-0.47119 0,-0.271292 -0.199898,-0.456912 -0.1999,-0.199899 -0.528305,-0.199899 -0.356963,0 -0.556861,0.199899 -0.18562,0.18562 -0.18562,0.456912 0,0.271291 0.18562,0.47119 0.199898,0.185621 0.556861,0.185621 z"
     style="font-weight:900;font-size:14.2351px;line-height:1.3;font-family:Gabarito;-inkscape-font-specification:'Gabarito Heavy';fill:#1a1a1a;stroke:none;stroke-width:1.13386;stroke-linecap:square;paint-order:stroke markers fill"
     id="path1928" />
  <path
     d="m 70.873315,14.410735 q -0.899545,0 -1.570635,-0.399798 -0.65681,-0.399798 -1.028051,-1.213672 -0.356962,-0.828153 -0.356962,-2.08466 0,-1.1708365 0.37124,-1.9847107 0.38552,-0.8281527 1.056609,-1.270786 0.671089,-0.4426333 1.556356,-0.4426333 0.94238,0 1.656305,0.4854688 0.728203,0.4711903 1.14228,1.3136215 0.414076,0.8281526 0.414076,1.8990397 0,1.056609 -0.428355,1.89904 -0.414076,0.842431 -1.156558,1.3279 -0.728203,0.47119 -1.656305,0.47119 z M 66.775387,16.92375 V 7.2143739 h 1.913318 l 0.67109,2.0703817 h -0.128507 v 2.7271924 h 0.128507 v 4.911802 z m 3.598181,-5.040308 q 0.456911,0 0.785316,-0.328406 0.328407,-0.342684 0.328407,-0.842431 0,-0.499747 -0.328407,-0.8424312 Q 70.830479,9.52749 70.373568,9.52749 q -0.456912,0 -0.799596,0.3426838 -0.342684,0.3426842 -0.342684,0.8424312 0,0.499747 0.342684,0.842431 0.342684,0.328406 0.799596,0.328406 z"
     style="font-weight:900;font-size:14.2351px;line-height:1.3;font-family:Gabarito;-inkscape-font-specification:'Gabarito Heavy';fill:#1a1a1a;stroke:none;stroke-width:1.13386;stroke-linecap:square;paint-order:stroke markers fill"
     id="path1930" />
  <path
     d="M 74.799935,14.210836 V 4.4871816 h 2.584407 v 9.7236544 z m 4.240713,0 v -3.898029 q 0,-0.4854686 -0.128506,-0.6282536 -0.114229,-0.1427849 -0.399798,-0.1427849 -0.185621,0 -0.399798,0.071392 -0.199899,0.057114 -0.442634,0.199899 -0.228456,0.1285064 -0.499746,0.3284065 L 76.227785,8.5851094 Q 76.570468,8.19959 77.041659,7.8426277 77.527127,7.4856653 78.098267,7.2572094 78.683685,7.014475 79.326218,7.014475 q 0.685367,0 1.128,0.2427344 0.456913,0.2284559 0.713925,0.6282537 0.257013,0.3997979 0.356963,0.9138237 0.09995,0.5140258 0.09995,1.070887 v 4.3406622 z"
     style="font-weight:900;font-size:14.2351px;line-height:1.3;font-family:Gabarito;-inkscape-font-specification:'Gabarito Heavy';fill:#1a1a1a;stroke:none;stroke-width:1.13386;stroke-linecap:square;paint-order:stroke markers fill"
     id="path1932" />
  <rect
     style="fill:#cccccc;stroke:none;stroke-width:1.13386;stroke-linecap:square;paint-order:stroke markers fill"
     id="rect876"
     width="10.947377"
     height="0.56746119"
     x="13.227226"
     y="14.406993"
     inkscape:transform-center-x="0.39387514"
     inkscape:transform-center-y="-0.051391373"
     transform="rotate(7.2959536)" />
  <rect
     style="fill:#cccccc;stroke:none;stroke-width:1.13386;stroke-linecap:square;paint-order:stroke markers fill"
     id="rect822"
     width="9.3692799"
     height="0.54857624"
     x="10.335645"
     y="3.5933344"
     inkscape:transform-center-x="-9.9053407"
     inkscape:transform-center-y="9.2740769"
     transform="rotate(43.233005)" />
  <circle
     style="fill:#ffdd55;stroke:none;stroke-width:1.13386;stroke-linecap:square;paint-order:stroke markers fill"
     id="path764"
     cx="5.2103271"
     cy="9.350544"
     r="1.8071324" />
  <circle
     style="fill:#ffdd55;stroke:none;stroke-width:1.13386;stroke-linecap:square;paint-order:stroke markers fill"
     id="circle768"
     cx="11.875993"
     cy="16.314323"
     r="0.85206789" />
  <circle
     style="fill:#ffdd55;stroke:none;stroke-width:1.13386;stroke-linecap:square;paint-order:stroke markers fill"
     id="circle1702"
     cx="21.771399"
     cy="17.45048"
     r="1.4268205" />
  <g
     id="g1767"
     transform="matrix(1.0030484,0,0,1.0030484,-1.2637381,28.923592)"
     style="stroke-width:0.996961" />
</svg>
