<svg
   viewBox="0 0 50.193822 8.8359429"
   version="1.1"
   xmlns="http://www.w3.org/2000/svg"
   xmlns:svg="http://www.w3.org/2000/svg">
  <g
     id="layer1"
     transform="translate(-1.4629777,-1.4121004)">
    <g
       id="g1938"
       transform="matrix(2.1214145,0,0,2.1214145,-133.85486,-280.61243)"
       style="stroke-width:0.471384">
      <path
         id="text1928"
         d="m 64.914384,133.07198 c -0.186189,0 -0.347821,0.0232 -0.484725,0.0698 -0.136904,0.0438 -0.250708,0.12184 -0.341064,0.2341 -0.08762,0.11226 -0.153078,0.26831 -0.196888,0.46819 -0.04381,0.19714 -0.06563,0.44936 -0.06563,0.75602 0,0.32583 0.02042,0.5901 0.0615,0.79272 0.04381,0.20262 0.109269,0.35866 0.196887,0.46819 0.08762,0.10678 0.198631,0.18062 0.332797,0.22169 0.134165,0.0411 0.291609,0.0615 0.472322,0.0615 0.101309,0 0.203945,-0.004 0.307992,-0.0124 0.106785,-0.008 0.209421,-0.0189 0.307991,-0.0326 0.101309,-0.0164 0.193293,-0.0346 0.275436,-0.0537 V 135.799 c -0.08214,0.0137 -0.188966,0.0263 -0.320394,0.0372 -0.131428,0.011 -0.30004,0.0165 -0.505396,0.0165 -0.150594,0 -0.276446,-0.0168 -0.377754,-0.0496 -0.101309,-0.0329 -0.183521,-0.0927 -0.246497,-0.18035 -0.06298,-0.0876 -0.109407,-0.21399 -0.139526,-0.37827 -0.02738,-0.16702 -0.04082,-0.38016 -0.04082,-0.64027 0,-0.25738 0.01484,-0.46684 0.04496,-0.62839 0.03012,-0.16154 0.07655,-0.28652 0.139526,-0.37414 0.06571,-0.0904 0.150718,-0.15162 0.254765,-0.18448 0.104047,-0.0329 0.228502,-0.0496 0.373621,-0.0496 0.112261,0 0.221877,0.004 0.328662,0.0124 0.109523,0.005 0.206574,0.0125 0.291455,0.0207 0.08488,0.008 0.150856,0.0166 0.197404,0.0248 v -0.24236 c -0.08214,-0.0219 -0.174127,-0.0401 -0.275436,-0.0537 -0.101309,-0.0164 -0.203944,-0.0299 -0.307991,-0.0408 -0.104047,-0.011 -0.198307,-0.0165 -0.283187,-0.0165 z m 6.181018,0.24236 -0.05323,0.61185 -0.353467,0.0574 v 0.20981 h 0.349333 l -0.0124,1.21543 c -0.0027,0.1725 0.01769,0.31091 0.0615,0.41496 0.04381,0.10405 0.112577,0.17928 0.205672,0.22583 0.0931,0.0465 0.21057,0.0698 0.35295,0.0698 h 0.299723 v -0.23823 l -0.26665,-0.0243 c -0.03559,-0.003 -0.07277,-0.01 -0.111104,-0.0207 -0.03833,-0.0137 -0.07499,-0.0355 -0.110588,-0.0656 -0.03286,-0.0301 -0.06026,-0.0743 -0.08217,-0.13177 -0.01917,-0.0575 -0.02894,-0.13413 -0.02894,-0.22996 v -1.21543 h 0.632519 v -0.26717 h -0.632519 v -0.61185 z m -1.46606,0.57516 c -0.150595,0 -0.295991,0.0288 -0.435633,0.0863 -0.139642,0.0548 -0.261305,0.11883 -0.365352,0.19275 l -0.06976,-0.24236 h -0.254765 v 2.19315 h 0.324528 v -1.72083 c 0.07667,-0.0438 0.149106,-0.0805 0.217558,-0.11058 0.07119,-0.0329 0.145025,-0.0575 0.221692,-0.0739 0.0794,-0.0192 0.164408,-0.0289 0.254764,-0.0289 0.09857,0 0.180783,0.0204 0.246497,0.0615 0.06845,0.0411 0.120468,0.0987 0.156063,0.1726 0.03833,0.0712 0.05736,0.1534 0.05736,0.24649 v 1.45366 h 0.324528 v -1.49087 c 0,-0.13142 -0.02322,-0.25309 -0.06976,-0.36535 -0.04655,-0.11226 -0.118987,-0.20285 -0.217557,-0.2713 -0.09857,-0.0684 -0.228611,-0.10232 -0.390157,-0.10232 z m -2.505274,0.008 c -0.22726,0 -0.40792,0.0325 -0.542086,0.0982 -0.134165,0.0657 -0.231734,0.18091 -0.291971,0.34519 -0.0575,0.16155 -0.0863,0.38725 -0.0863,0.67748 0,0.28476 0.0288,0.50958 0.0863,0.67386 0.0575,0.16429 0.152275,0.28037 0.283703,0.34882 0.134166,0.0684 0.316222,0.10283 0.54622,0.10283 0.15607,0 0.29397,-0.006 0.414445,-0.0165 0.120475,-0.011 0.244052,-0.0244 0.370003,-0.0408 v -0.1974 h -0.706417 c -0.183451,0 -0.323263,-0.0232 -0.419095,-0.0698 -0.09309,-0.0493 -0.157158,-0.12731 -0.192753,-0.2341 -0.0356,-0.10952 -0.05514,-0.253 -0.05788,-0.43098 h 0.800985 c 0.128689,0 0.239701,-0.0168 0.332796,-0.0496 0.09583,-0.0356 0.168272,-0.0918 0.217558,-0.16846 0.05202,-0.0794 0.07803,-0.18344 0.07803,-0.31213 0,-0.18619 -0.0302,-0.33107 -0.09043,-0.43511 -0.0575,-0.10679 -0.147571,-0.18202 -0.270784,-0.22583 -0.120476,-0.0438 -0.277919,-0.0656 -0.472323,-0.0656 z m 6.144328,0 c -0.22726,0 -0.408437,0.0325 -0.542603,0.0982 -0.134165,0.0657 -0.231217,0.18091 -0.291455,0.34519 -0.006,0.017 -0.01166,0.0349 -0.01693,0.0536 -0.02486,0.077 -0.0029,0.11851 0.01834,0.13993 0.02257,0.021 0.04993,0.0193 0.08089,0.0204 h 0.103048 c 0.08764,-0.004 0.08515,-0.0556 0.102491,-0.10335 0.0356,-0.115 0.09687,-0.1939 0.184485,-0.23771 0.08762,-0.0465 0.208403,-0.0703 0.361735,-0.0703 0.131428,0 0.235459,0.0154 0.312126,0.0455 0.0794,0.0274 0.136487,0.0766 0.172082,0.14779 0.03833,0.0685 0.05788,0.1655 0.05788,0.29145 0,0.11774 -0.0302,0.19995 -0.09043,0.2465 -0.0575,0.0438 -0.148088,0.0656 -0.271301,0.0656 h -0.198278 c -0.07839,-0.001 -0.08319,0.0293 -0.08492,0.0637 v 0.0808 c -0.0023,0.0834 0.03149,0.0685 0.08367,0.0694 h 0.224323 c 0.12869,0 0.239702,-0.0168 0.332797,-0.0496 0.09583,-0.0356 0.168272,-0.0918 0.217557,-0.16846 0.05202,-0.0794 0.07803,-0.18344 0.07803,-0.31213 0,-0.18619 -0.0302,-0.33107 -0.09043,-0.43511 -0.0575,-0.10679 -0.147571,-0.18202 -0.270784,-0.22583 -0.120476,-0.0438 -0.27792,-0.0656 -0.472323,-0.0656 z m 2.455664,0.004 c -0.158808,0 -0.2995,0.0386 -0.422713,0.11524 -0.120476,0.0767 -0.230091,0.17371 -0.328662,0.29145 l -0.07803,-0.38189 h -0.246496 v 2.19315 h 0.324528 v -1.55649 c 0.07667,-0.0712 0.150502,-0.13159 0.221692,-0.18087 0.07119,-0.0493 0.146421,-0.0859 0.225826,-0.11059 0.0794,-0.0246 0.169992,-0.0372 0.271301,-0.0372 0.04107,0 0.08192,0.003 0.12299,0.008 0.04107,0.003 0.07964,0.007 0.115238,0.0124 v -0.33279 c -0.03012,-0.008 -0.06311,-0.0138 -0.0987,-0.0165 -0.03286,-0.003 -0.06864,-0.004 -0.10697,-0.004 z m -8.599992,0.24236 c 0.131428,0 0.23546,0.0154 0.312126,0.0455 0.0794,0.0274 0.137004,0.0766 0.172599,0.14779 0.03833,0.0685 0.05736,0.1655 0.05736,0.29145 0,0.11774 -0.0302,0.19995 -0.09043,0.2465 -0.0575,0.0438 -0.148088,0.0656 -0.271301,0.0656 h -0.780314 c 0,-0.21083 0.01815,-0.37386 0.05374,-0.48886 0.0356,-0.115 0.09687,-0.1939 0.184485,-0.23771 0.08762,-0.0465 0.208403,-0.0703 0.361735,-0.0703 z m 5.279892,1.44067 c 0.0089,0.0387 0.01883,0.0751 0.03037,0.10807 0.0575,0.16429 0.152276,0.28037 0.283704,0.34882 0.134166,0.0684 0.316221,0.10283 0.54622,0.10283 0.15607,0 0.293969,-0.006 0.414445,-0.0165 0.120475,-0.011 0.244052,-0.0244 0.370003,-0.0408 v -0.1974 h -0.706417 c -0.183451,0 -0.323263,-0.0232 -0.419096,-0.0698 -0.09309,-0.0493 -0.157674,-0.12731 -0.193269,-0.2341 -0.02031,-0.0772 -0.04026,-0.0899 -0.07701,-0.0909 l -0.188312,-4e-5 c -0.06235,-0.002 -0.07046,0.0277 -0.06064,0.0898 z" />

        <path
           d="m 77.228014,136.14412 q -0.42714,0 -0.607854,-0.23 -0.176606,-0.23 -0.176606,-0.71875 0,-0.16839 0.01643,-0.34499 0.02054,-0.18072 0.04929,-0.35732 0.07803,-0.46411 0.238213,-0.78446 0.160178,-0.32036 0.423033,-0.48464 0.262856,-0.16429 0.644818,-0.16429 0.365534,0 0.59964,0.0411 0.234106,0.037 0.418926,0.0945 l -0.06161,0.39428 q -0.143749,-0.0288 -0.369641,-0.0534 -0.221784,-0.0246 -0.533925,-0.0246 -0.279284,0 -0.447676,0.1191 -0.164285,0.115 -0.258749,0.35732 -0.09036,0.23821 -0.151963,0.62018 -0.05339,0.34089 -0.05339,0.55446 0,0.25464 0.102678,0.38607 0.102678,0.12732 0.344998,0.12732 0.08214,0 0.180714,-0.0123 0.102678,-0.0123 0.197141,-0.0288 0.09857,-0.0205 0.176606,-0.037 0.08214,-0.0205 0.131428,-0.037 l 0.110893,-0.70232 h -0.611961 l 0.06161,-0.39839 q 0.110893,-0.0123 0.283392,-0.0205 0.172499,-0.0123 0.406605,-0.0123 0.06161,0 0.139642,0.004 0.07803,0 0.151963,0.004 0.07393,0 0.123214,0 l -0.266963,1.68392 h -0.377855 l -0.04107,-0.20947 q -0.0575,0.0329 -0.160178,0.0739 -0.09857,0.0411 -0.217677,0.078 -0.119107,0.0328 -0.24232,0.0575 -0.119107,0.0246 -0.221785,0.0246 z"
           id="path394" />
        <path
           d="m 78.977644,136.11948 0.349106,-2.20142 h 0.447676 l 0.01643,0.27928 q 0.123214,-0.1191 0.279284,-0.20946 0.156071,-0.0945 0.349106,-0.0945 0.07393,0 0.131427,0.008 0.0575,0.004 0.106786,0.0205 l -0.07393,0.50517 q -0.06161,-0.004 -0.131427,-0.008 -0.06571,-0.004 -0.139643,-0.004 -0.18482,0 -0.332676,0.0575 -0.147857,0.0575 -0.250535,0.13143 l -0.24232,1.51553 z"
           id="path396" />
        <path
           d="m 81.269413,136.14412 q -0.168392,0 -0.308034,-0.078 -0.139642,-0.078 -0.225892,-0.24232 -0.08214,-0.16839 -0.08214,-0.43124 0,-0.115 0.01643,-0.23822 0.01643,-0.12321 0.02875,-0.20946 0.0575,-0.35732 0.193035,-0.58732 0.135535,-0.2341 0.369641,-0.3491 0.238213,-0.115 0.591425,-0.115 0.172499,0 0.340891,0.0328 0.172499,0.0288 0.316248,0.0863 0.143749,0.0575 0.24232,0.13554 l -0.312141,1.97142 h -0.447676 l -0.02464,-0.2259 q -0.0575,0.0452 -0.172499,0.10679 -0.114999,0.0575 -0.254641,0.10268 -0.135535,0.0411 -0.27107,0.0411 z m 0.238213,-0.41071 q 0.15607,0 0.279284,-0.0534 0.123214,-0.0575 0.229999,-0.1191 l 0.18482,-1.17053 q -0.04518,-0.0246 -0.143749,-0.0534 -0.09857,-0.0329 -0.229999,-0.0329 -0.201249,0 -0.328569,0.078 -0.123214,0.078 -0.197142,0.23 -0.06982,0.14786 -0.106785,0.37375 -0.01643,0.0986 -0.02464,0.18071 -0.0082,0.0822 -0.0082,0.13554 0,0.19714 0.08625,0.31625 0.09036,0.115 0.258749,0.115 z"
           id="path398" />
        <path
           d="m 82.7603,137.09286 0.492855,-3.10087 q 0.250534,-0.0452 0.505175,-0.0698 0.258749,-0.0288 0.562676,-0.0288 0.381962,0 0.550354,0.19303 0.168392,0.19304 0.168392,0.58321 0,0.10268 -0.01232,0.21357 -0.0082,0.1109 -0.02875,0.22179 -0.05339,0.34089 -0.188928,0.57499 -0.135535,0.23 -0.344998,0.34911 -0.209463,0.115 -0.488747,0.115 -0.156071,0 -0.295713,-0.0246 -0.135535,-0.0247 -0.246427,-0.078 l -0.164285,1.05142 z m 1.158208,-1.37999 q 0.176606,0 0.291606,-0.0739 0.119106,-0.078 0.188927,-0.2341 0.07393,-0.16018 0.115,-0.4025 0.0082,-0.0575 0.01643,-0.11911 0.0082,-0.0657 0.0082,-0.12732 0,-0.23 -0.08625,-0.34089 -0.08214,-0.11089 -0.266963,-0.11089 l -0.476426,0.004 -0.21357,1.3307 q 0.07803,0.0247 0.139642,0.0411 0.06161,0.0164 0.127321,0.0246 0.06982,0.008 0.15607,0.008 z"
           style="font-style:italic;font-weight:600;font-family:Exo;-inkscape-font-specification:'Exo Semi-Bold Italic'"
           id="path400" />
        <path
           d="m 85.253324,136.11948 0.496961,-3.13374 h 0.509283 l -0.188928,1.16232 q 0.147857,-0.10268 0.353213,-0.18071 0.205356,-0.078 0.451783,-0.078 0.266963,0 0.406605,0.13143 0.143749,0.13143 0.143749,0.41482 0,0.10268 -0.01643,0.23821 l -0.234106,1.44571 H 86.67028 l 0.21357,-1.3841 q 0.0082,-0.0288 0.0082,-0.0575 0.0041,-0.0287 0.0041,-0.0534 0,-0.15607 -0.08214,-0.21767 -0.08214,-0.0616 -0.217677,-0.0616 -0.172499,0 -0.308034,0.0534 -0.135535,0.0534 -0.275177,0.14786 l -0.250535,1.57303 z"
           id="path402" />
      <path
         id="path1936"
         style="fill:#aad400;fill-opacity:1;stroke:none;stroke-width:0.0612798;stroke-linecap:round;stroke-linejoin:round"
         d="m 72.541993,134.72359 c -0.06666,0 -0.120373,0.0537 -0.120373,0.12037 v 0.099 h -0.185051 c -0.04857,0 -0.08765,0.0391 -0.08765,0.0876 0,0.0485 0.03907,0.0876 0.08765,0.0876 h 0.185051 v 0.0991 c 0,0.0666 0.05373,0.12008 0.120373,0.12008 0.06666,0 0.120373,-0.0534 0.120373,-0.12008 v -0.0991 h 0.185051 c 0.04858,0 0.08765,-0.0391 0.08765,-0.0876 0,-0.0485 -0.03908,-0.0876 -0.08765,-0.0876 h -0.185051 v -0.099 c 0,-0.0666 -0.05373,-0.12037 -0.120373,-0.12037 z" />
    </g>
  </g>
</svg>
